<svg width="17" height="17" viewBox="0 0 17 17" fill="none" xmlns="http://www.w3.org/2000/svg">
<path d="M8.17748 0C6.56692 0 4.99253 0.498516 3.6534 1.43251C2.31427 2.3665 1.27054 3.69402 0.65421 5.24719C0.0378758 6.80036 -0.123385 8.50943 0.190819 10.1583C0.505024 11.8071 1.28058 13.3217 2.41942 14.5104C3.55825 15.6992 5.00922 16.5087 6.58883 16.8367C8.16845 17.1646 9.80576 16.9963 11.2937 16.353C12.7817 15.7096 14.0535 14.6202 14.9482 13.2223C15.843 11.8245 16.3206 10.1811 16.3206 8.5C16.3183 6.24639 15.4597 4.08576 13.933 2.49222C12.4064 0.898677 10.3365 0.00237985 8.17748 0ZM8.80387 3.21856L10.7449 1.82505C11.8562 2.29234 12.8324 3.0527 13.5778 4.03178L12.9514 6.2336C12.9357 6.2336 12.9193 6.24178 12.9036 6.2475L11.1168 6.85312C11.09 6.86207 11.0639 6.873 11.0385 6.88582L8.80387 5.28144V3.21856ZM5.61239 1.82505L7.55108 3.21856V5.28144L5.31486 6.88909C5.28953 6.87627 5.26337 6.86534 5.23656 6.85639L3.44977 6.25077C3.43411 6.24505 3.41766 6.24096 3.402 6.23687L2.77561 4.03505C3.52174 3.05421 4.49929 2.29264 5.61239 1.82505ZM4.5945 12.3757H2.3755C1.72595 11.3215 1.35357 10.1075 1.29575 8.85553L3.01834 7.47591C3.03316 7.48275 3.04832 7.48875 3.06375 7.49389L4.85132 8.10034C4.87522 8.10787 4.89954 8.11388 4.92414 8.11832L5.76899 10.6863C5.75725 10.701 5.7455 10.7157 5.73454 10.7312L4.63052 12.3176C4.61752 12.3363 4.60549 12.3557 4.5945 12.3757ZM9.95409 15.4471C8.78998 15.7708 7.56498 15.7708 6.40087 15.4471L5.61318 13.126C5.62336 13.1129 5.63432 13.1006 5.64371 13.0867L6.74852 11.4995C6.76151 11.4811 6.77354 11.462 6.78453 11.4423H9.57042C9.58142 11.462 9.59344 11.4811 9.60644 11.4995L10.7112 13.0867C10.7206 13.1006 10.7316 13.1129 10.7418 13.126L9.95409 15.4471ZM11.7605 12.3732C11.7495 12.3532 11.7374 12.3338 11.7244 12.3152L10.6196 10.7312C10.6087 10.7157 10.5969 10.701 10.5852 10.6863L11.43 8.11832C11.4546 8.11388 11.479 8.10787 11.5029 8.10034L13.2904 7.49389C13.3059 7.48875 13.321 7.48275 13.3358 7.47591L15.0584 8.85553C15.0006 10.1075 14.6282 11.3215 13.9787 12.3757L11.7605 12.3732Z" fill="black"/>
</svg>
