<svg width="37" height="32" viewBox="0 0 37 32" fill="none" xmlns="http://www.w3.org/2000/svg">
<path d="M32.4401 22.7898H9.31014L4.86206 5.84651H36.8882L32.4401 22.7898Z" fill="#616161"/>
<path d="M0.413818 0.76355H3.52747L4.8619 5.84654M4.8619 5.84654L9.30998 22.7899H32.44L36.8881 5.84654H4.8619Z" fill="#616161"/>
<path d="M9.30996 31.2615C10.7839 31.2615 11.9788 30.1237 11.9788 28.72C11.9788 27.3164 10.7839 26.1785 9.30996 26.1785C7.836 26.1785 6.64111 27.3164 6.64111 28.72C6.64111 30.1237 7.836 31.2615 9.30996 31.2615Z" fill="#616161"/>
<path d="M32.4401 31.2615C33.9141 31.2615 35.1089 30.1237 35.1089 28.72C35.1089 27.3164 33.9141 26.1785 32.4401 26.1785C30.9661 26.1785 29.7712 27.3164 29.7712 28.72C29.7712 30.1237 30.9661 31.2615 32.4401 31.2615Z" fill="#616161"/>
</svg>
