<svg width="17" height="17" viewBox="0 0 17 17" fill="none" xmlns="http://www.w3.org/2000/svg">
<path d="M8.39162 0.00128143C7.6017 0.0267826 6.99094 0.715314 7.01537 1.53135C7.02351 1.73536 7.06423 1.93087 7.14567 2.12638L7.38183 2.6704C7.4144 2.78091 7.3574 2.89991 7.24339 2.93392C7.1701 2.97642 7.08866 2.93392 7.03166 2.86591L6.68963 2.39839C6.4209 2.04138 6.01372 1.82036 5.58211 1.81186C4.79219 1.79486 4.14071 2.44939 4.12443 3.26543C4.11628 3.62245 4.23029 3.96246 4.44202 4.25148L4.78405 4.6765H4.79219C4.85734 4.787 4.83291 4.92301 4.74333 4.99101C4.67004 5.05051 4.57232 5.05051 4.50717 4.99101L4.07557 4.63399C3.79869 4.41298 3.4648 4.29398 3.13092 4.30248C2.34914 4.31948 1.72209 4.99951 1.73838 5.82405C1.74652 6.27457 1.95826 6.69959 2.30028 6.9801L2.76446 7.35412C2.85404 7.43912 2.85404 7.57513 2.75632 7.65163C2.72952 7.68062 2.6948 7.70027 2.6569 7.70787C2.619 7.71548 2.57977 7.71068 2.54459 7.69413H2.53644L2.03969 7.45612C1.85239 7.37962 1.66509 7.32862 1.46965 7.32012C0.687869 7.29462 0.0282452 7.94065 0.0038147 8.76518C0.0038147 9.37721 0.329555 9.93824 0.867026 10.1762L10.1425 14.4859L13.8803 10.5843L9.75159 0.902323C9.52357 0.332797 8.96167 -0.0242197 8.39162 0.00128143ZM9.06753 3.48644C9.40956 3.47794 9.71901 3.68195 9.84931 4.00496L12.3331 9.81923L9.11639 6.47008L8.35905 4.6765C8.11474 4.14097 8.48934 3.50344 9.06753 3.48644ZM6.39646 5.82405C6.61634 5.82405 6.81993 5.90905 6.97465 6.07906L10.8917 10.1677C11.2174 10.4908 11.2256 11.0263 10.9161 11.3663C10.5904 11.7063 10.0855 11.7148 9.74344 11.3663L5.82642 7.27762C5.74897 7.20064 5.68701 7.1083 5.64418 7.00601C5.60135 6.90372 5.57851 6.79353 5.57699 6.68191C5.57548 6.57029 5.59532 6.45947 5.63535 6.35596C5.67538 6.25244 5.7348 6.1583 5.81013 6.07906C5.96486 5.90905 6.17659 5.82405 6.39646 5.82405ZM4.18143 8.64618C4.2873 8.64618 4.40131 8.68018 4.48274 8.72268L6.21731 9.52172L9.42585 12.8709L3.8394 10.2783C3.00877 9.90424 3.28565 8.62068 4.18143 8.64618ZM14.8901 11.9358L11.4373 15.54L12.1295 16.2625C12.7484 16.9001 13.6442 17.1466 14.483 16.9171C14.896 16.7993 15.2724 16.5711 15.5752 16.2551C15.8779 15.939 16.0965 15.5461 16.2094 15.115C16.4293 14.2394 16.1931 13.3044 15.5823 12.6584L14.8901 11.9358Z" fill="black"/>
</svg>
