<svg width="17" height="17" viewBox="0 0 17 17" fill="none" xmlns="http://www.w3.org/2000/svg">
<path d="M8.39159 0.00128143C7.60167 0.0267826 6.99091 0.715314 7.01534 1.53135C7.02348 1.73536 7.0642 1.93087 7.14564 2.12638L7.3818 2.6704C7.41437 2.78091 7.35737 2.89991 7.24336 2.93392C7.17007 2.97642 7.08863 2.93392 7.03163 2.86591L6.6896 2.39839C6.42086 2.04138 6.01369 1.82036 5.58208 1.81186C4.79216 1.79486 4.14068 2.44939 4.1244 3.26543C4.11625 3.62245 4.23026 3.96246 4.44199 4.25148L4.78402 4.6765H4.79216C4.85731 4.787 4.83288 4.92301 4.7433 4.99101C4.67001 5.05051 4.57229 5.05051 4.50714 4.99101L4.07554 4.63399C3.79866 4.41298 3.46477 4.29398 3.13089 4.30248C2.34911 4.31948 1.72206 4.99951 1.73835 5.82405C1.74649 6.27457 1.95823 6.69959 2.30025 6.9801L2.76443 7.35412C2.85401 7.43912 2.85401 7.57513 2.75629 7.65163C2.72949 7.68062 2.69477 7.70027 2.65687 7.70787C2.61897 7.71548 2.57974 7.71068 2.54456 7.69413H2.53641L2.03966 7.45612C1.85236 7.37962 1.66506 7.32862 1.46961 7.32012C0.687838 7.29462 0.0282147 7.94065 0.00378418 8.76518C0.00378418 9.37721 0.329524 9.93824 0.866995 10.1762L10.1424 14.4859L13.8803 10.5843L9.75156 0.902323C9.52354 0.332797 8.96164 -0.0242197 8.39159 0.00128143ZM9.0675 3.48644C9.40953 3.47794 9.71898 3.68195 9.84928 4.00496L12.333 9.81923L9.11636 6.47008L8.35902 4.6765C8.11471 4.14097 8.48931 3.50344 9.0675 3.48644ZM6.39643 5.82405C6.61631 5.82405 6.8199 5.90905 6.97462 6.07906L10.8916 10.1677C11.2174 10.4908 11.2255 11.0263 10.9161 11.3663C10.5903 11.7063 10.0854 11.7148 9.74341 11.3663L5.82639 7.27762C5.74894 7.20064 5.68698 7.1083 5.64415 7.00601C5.60132 6.90372 5.57848 6.79353 5.57696 6.68191C5.57545 6.57029 5.59529 6.45947 5.63532 6.35596C5.67535 6.25244 5.73477 6.1583 5.8101 6.07906C5.96483 5.90905 6.17656 5.82405 6.39643 5.82405ZM4.1814 8.64618C4.28727 8.64618 4.40128 8.68018 4.48271 8.72268L6.21728 9.52172L9.42582 12.8709L3.83937 10.2783C3.00874 9.90424 3.28562 8.62068 4.1814 8.64618ZM14.8901 11.9358L11.4373 15.54L12.1295 16.2625C12.7484 16.9001 13.6442 17.1466 14.4829 16.9171C14.896 16.7993 15.2724 16.5711 15.5752 16.2551C15.8779 15.939 16.0965 15.5461 16.2094 15.115C16.4292 14.2394 16.1931 13.3044 15.5823 12.6584L14.8901 11.9358Z" fill="black"/>
</svg>
