<svg width="17" height="17" viewBox="0 0 17 17" fill="none" xmlns="http://www.w3.org/2000/svg">
<path d="M8.17743 0C6.56687 0 4.99248 0.498516 3.65335 1.43251C2.31422 2.3665 1.2705 3.69402 0.654164 5.24719C0.03783 6.80036 -0.123431 8.50943 0.190773 10.1583C0.504978 11.8071 1.28054 13.3217 2.41937 14.5104C3.55821 15.6992 5.00918 16.5087 6.58879 16.8367C8.1684 17.1646 9.80571 16.9963 11.2937 16.353C12.7816 15.7096 14.0534 14.6202 14.9482 13.2223C15.843 11.8245 16.3206 10.1811 16.3206 8.5C16.3183 6.24639 15.4596 4.08576 13.933 2.49222C12.4063 0.898677 10.3364 0.00237985 8.17743 0ZM8.80383 3.21856L10.7449 1.82505C11.8562 2.29234 12.8323 3.0527 13.5777 4.03178L12.9513 6.2336C12.9357 6.2336 12.9192 6.24178 12.9036 6.2475L11.1168 6.85312C11.09 6.86207 11.0638 6.873 11.0385 6.88582L8.80383 5.28144V3.21856ZM5.61235 1.82505L7.55104 3.21856V5.28144L5.31481 6.88909C5.28949 6.87627 5.26332 6.86534 5.23651 6.85639L3.44972 6.25077C3.43406 6.24505 3.41762 6.24096 3.40196 6.23687L2.77556 4.03505C3.52169 3.05421 4.49925 2.29264 5.61235 1.82505ZM4.59446 12.3757H2.37545C1.72591 11.3215 1.35352 10.1075 1.29571 8.85553L3.01829 7.47591C3.03311 7.48275 3.04827 7.48875 3.06371 7.49389L4.85128 8.10034C4.87518 8.10787 4.8995 8.11388 4.9241 8.11832L5.76895 10.6863C5.7572 10.701 5.74546 10.7157 5.7345 10.7312L4.63047 12.3176C4.61747 12.3363 4.60545 12.3557 4.59446 12.3757ZM9.95404 15.4471C8.78993 15.7708 7.56494 15.7708 6.40082 15.4471L5.61313 13.126C5.62331 13.1129 5.63427 13.1006 5.64367 13.0867L6.74847 11.4995C6.76147 11.4811 6.77349 11.462 6.78449 11.4423H9.57038C9.58137 11.462 9.5934 11.4811 9.6064 11.4995L10.7112 13.0867C10.7206 13.1006 10.7316 13.1129 10.7417 13.126L9.95404 15.4471ZM11.7604 12.3732C11.7494 12.3532 11.7374 12.3338 11.7244 12.3152L10.6196 10.7312C10.6086 10.7157 10.5969 10.701 10.5851 10.6863L11.43 8.11832C11.4546 8.11388 11.4789 8.10787 11.5028 8.10034L13.2904 7.49389C13.3058 7.48875 13.321 7.48275 13.3358 7.47591L15.0584 8.85553C15.0006 10.1075 14.6282 11.3215 13.9786 12.3757L11.7604 12.3732Z" fill="black"/>
</svg>
