<svg width="38" height="25" viewBox="0 0 38 25" fill="none" xmlns="http://www.w3.org/2000/svg">
<path d="M17.1 25C13.9333 25 11.2417 23.7847 9.025 21.3542C6.80833 18.9236 5.7 15.9722 5.7 12.5C5.7 12.1181 5.71583 11.7361 5.7475 11.3542C5.77917 10.9722 5.82667 10.5903 5.89 10.2083C5.73167 10.2778 5.54167 10.3299 5.32 10.3646C5.09833 10.3993 4.90833 10.4167 4.75 10.4167C3.42 10.4167 2.29583 9.91319 1.3775 8.90625C0.459166 7.8993 0 6.66667 0 5.20833C0 3.75 0.435733 2.51736 1.3072 1.51042C2.17867 0.503472 3.27877 0 4.6075 0C5.6525 0 6.5949 0.320833 7.4347 0.9625C8.2745 1.60417 8.86793 2.42917 9.215 3.4375C10.26 2.39583 11.4557 1.5625 12.8022 0.9375C14.1487 0.3125 15.5813 0 17.1 0H38V8.33333H28.5V12.5C28.5 15.9722 27.3917 18.9236 25.175 21.3542C22.9583 23.7847 20.2667 25 17.1 25ZM4.75 7.29167C5.28833 7.29167 5.7399 7.09167 6.1047 6.69167C6.4695 6.29167 6.65127 5.79722 6.65 5.20833C6.65 4.61806 6.4676 4.12292 6.1028 3.72292C5.738 3.32292 5.28707 3.12361 4.75 3.125C4.21167 3.125 3.7601 3.325 3.3953 3.725C3.0305 4.125 2.84873 4.61944 2.85 5.20833C2.85 5.79861 3.0324 6.29375 3.3972 6.69375C3.762 7.09375 4.21293 7.29306 4.75 7.29167ZM17.1 19.7917C18.9367 19.7917 20.5042 19.0799 21.8025 17.6562C23.1008 16.2326 23.75 14.5139 23.75 12.5C23.75 10.4861 23.1008 8.76736 21.8025 7.34375C20.5042 5.92014 18.9367 5.20833 17.1 5.20833C15.2633 5.20833 13.6958 5.92014 12.3975 7.34375C11.0992 8.76736 10.45 10.4861 10.45 12.5C10.45 14.5139 11.0992 16.2326 12.3975 17.6562C13.6958 19.0799 15.2633 19.7917 17.1 19.7917ZM17.1 16.6667C18.145 16.6667 19.0399 16.2583 19.7847 15.4417C20.5295 14.625 20.9013 13.6444 20.9 12.5C20.9 11.3542 20.5276 10.3729 19.7828 9.55625C19.038 8.73958 18.1437 8.33194 17.1 8.33333C16.055 8.33333 15.1601 8.74167 14.4153 9.55833C13.6705 10.375 13.2987 11.3556 13.3 12.5C13.3 13.6458 13.6724 14.6271 14.4172 15.4437C15.162 16.2604 16.0563 16.6681 17.1 16.6667Z" fill="white"/>
</svg>
